<svg width="164" height="48" xmlns="http://www.w3.org/2000/svg"><g fill-rule="nonzero" fill="none"><path d="M50.034 14.087a.283.283 0 00-.269-.246c-.112 0-2.506-.18-2.506-.18s-1.656-1.654-1.859-1.833c-.179-.18-.537-.135-.67-.09-.023 0-.359.112-.94.291-.56-1.634-1.545-3.11-3.268-3.11h-.157C39.896 8.29 39.27 8 38.756 8c-4.03 0-5.954 5.035-6.558 7.586-1.567.492-2.686.828-2.82.873-.873.268-.895.29-1.007 1.119C28.282 18.204 26 35.883 26 35.883l17.79 3.334 9.645-2.081c0-.023-3.38-22.893-3.401-23.05v.001zm-7.228-1.79c-.448.134-.963.29-1.5.47v-.337c0-.985-.134-1.79-.358-2.44.895.135 1.477 1.142 1.858 2.306v.001zm-2.977-2.082c.247.627.403 1.5.403 2.708v.18c-.984.312-2.036.626-3.11.961.604-2.305 1.745-3.423 2.707-3.849zm.694 8.929l-1.186 3.536s-1.052-.56-2.327-.56c-1.88 0-1.97 1.186-1.97 1.477 0 1.611 4.208 2.238 4.208 6.02 0 2.976-1.88 4.9-4.431 4.9-3.066 0-4.61-1.902-4.61-1.902l.828-2.707s1.611 1.387 2.954 1.387c.895 0 1.253-.694 1.253-1.208 0-2.104-3.446-2.193-3.446-5.662 0-2.909 2.08-5.728 6.31-5.728 1.611-.023 2.417.447 2.417.447zm-1.88-10.069c.18 0 .358.066.515.178-1.298.604-2.663 2.126-3.245 5.192-.85.268-1.678.514-2.461.76.671-2.327 2.305-6.13 5.191-6.13z" fill="#B5B9C1"/><path d="M49.765 13.818c-.112 0-2.506-.179-2.506-.179s-1.656-1.656-1.859-1.835a.36.36 0 00-.246-.112l-1.342 27.525 9.644-2.081s-3.379-22.893-3.401-23.05a.387.387 0 00-.291-.268h.001z" fill="#A2A7B0"/><path d="M64.69 25.79c-.961-.514-1.454-.962-1.454-1.566 0-.761.694-1.253 1.768-1.253 1.253 0 2.372.514 2.372.514l.873-2.685s-.806-.627-3.178-.627c-3.312 0-5.616 1.903-5.616 4.565 0 1.522 1.074 2.663 2.506 3.491 1.163.65 1.566 1.12 1.566 1.813 0 .716-.582 1.298-1.656 1.298-1.588 0-3.11-.828-3.11-.828l-.94 2.685s1.387.94 3.737.94c3.401 0 5.863-1.678 5.863-4.7-.022-1.655-1.253-2.796-2.73-3.647h-.001zm13.562-5.661c-1.679 0-2.999.805-4.006 2.014l-.045-.023 1.455-7.608h-3.782L68.182 33.89h3.782l1.253-6.624c.492-2.506 1.79-4.05 2.998-4.05.85 0 1.186.582 1.186 1.41 0 .514-.044 1.163-.156 1.678l-1.432 7.586h3.781l1.477-7.832c.157-.828.269-1.813.269-2.484.022-2.17-1.097-3.446-3.088-3.446v.001zm11.681 0c-4.565 0-7.586 4.117-7.586 8.705 0 2.931 1.812 5.303 5.214 5.303 4.475 0 7.496-4.006 7.496-8.705.023-2.73-1.566-5.303-5.124-5.303zm-1.857 11.099c-1.298 0-1.835-1.097-1.835-2.484 0-2.17 1.118-5.706 3.177-5.706 1.343 0 1.79 1.163 1.79 2.282 0 2.328-1.14 5.908-3.132 5.908zm16.694-11.099c-2.552 0-4.006 2.26-4.006 2.26h-.045l.224-2.037h-3.357a84.12 84.12 0 01-.76 5.035l-2.641 13.875h3.781l1.052-5.617h.09s.783.492 2.215.492c4.453 0 7.362-4.565 7.362-9.175 0-2.55-1.14-4.833-3.916-4.833h.001zm-3.626 11.144c-.985 0-1.566-.56-1.566-.56l.626-3.535c.448-2.372 1.679-3.939 2.999-3.939 1.163 0 1.521 1.074 1.521 2.081 0 2.462-1.454 5.953-3.58 5.953zM114.1 14.69c-1.208 0-2.17.963-2.17 2.194 0 1.119.716 1.902 1.79 1.902h.045c1.186 0 2.193-.806 2.215-2.193 0-1.119-.738-1.902-1.88-1.902v-.001zm-5.303 19.179h3.782l2.573-13.45h-3.804l-2.551 13.45zm16-13.472h-2.64l.134-.626c.224-1.298.985-2.44 2.26-2.44.671 0 1.208.202 1.208.202l.739-2.976s-.649-.336-2.059-.336c-1.342 0-2.685.38-3.715 1.253-1.297 1.097-1.902 2.685-2.193 4.297l-.111.626h-1.768l-.56 2.865h1.768l-2.014 10.607h3.782l2.014-10.607h2.618l.537-2.865zm9.13.023s-2.372 5.974-3.424 9.242h-.044c-.067-1.052-.94-9.242-.94-9.242h-3.983l2.282 12.33c.045.268.023.447-.09.626-.447.85-1.185 1.679-2.058 2.283-.716.514-1.522.85-2.148 1.074l1.051 3.222c.761-.156 2.372-.805 3.715-2.058 1.723-1.612 3.334-4.118 4.968-7.52l4.632-9.957h-3.961z" fill="#B5B9C1"/></g></svg>