<svg width="164" height="48" xmlns="http://www.w3.org/2000/svg"><path d="M84.609 15.045a2.335 2.335 0 11-4.67 0c0-1.297 1.006-2.342 2.335-2.342 1.33.036 2.335 1.08 2.335 2.342zm-9.628 4.72v.577s-1.114-1.441-3.485-1.441c-3.916 0-6.97 2.99-6.97 7.135 0 4.108 3.019 7.135 6.97 7.135 2.407 0 3.485-1.477 3.485-1.477v.612c0 .289.216.505.503.505h2.91V19.26h-2.91a.515.515 0 00-.503.505zm0 8.685c-.539.793-1.617 1.478-2.91 1.478-2.3 0-4.06-1.442-4.06-3.892s1.76-3.892 4.06-3.892c1.257 0 2.407.72 2.91 1.478v4.828zm5.568-9.189H84v13.55h-3.45V19.26l-.001.001zm51.517-.36c-2.37 0-3.484 1.441-3.484 1.441V12.74h-3.45v20.07h2.91a.515.515 0 00.504-.505v-.612s1.113 1.477 3.484 1.477c3.916 0 6.97-3.027 6.97-7.135s-3.054-7.135-6.934-7.135v.001zm-.574 10.99c-1.33 0-2.371-.684-2.91-1.477v-4.828c.539-.721 1.688-1.478 2.91-1.478 2.299 0 4.06 1.442 4.06 3.892s-1.761 3.892-4.06 3.892v-.001zm-8.155-5.116v8.072h-3.45V25.17c0-2.234-.718-3.135-2.658-3.135-1.042 0-2.12.54-2.802 1.333v9.442h-3.449V19.26h2.73c.288 0 .504.253.504.505v.576c1.005-1.045 2.335-1.441 3.664-1.441 1.509 0 2.766.432 3.772 1.297 1.222 1.01 1.689 2.307 1.689 4.577v.001zm-20.73-5.875c-2.37 0-3.484 1.441-3.484 1.441V12.74h-3.449v20.07h2.91a.515.515 0 00.503-.505v-.612s1.114 1.477 3.485 1.477c3.916 0 6.97-3.027 6.97-7.135.035-4.108-3.019-7.135-6.934-7.135h-.001zm-.574 10.99c-1.33 0-2.371-.684-2.91-1.477v-4.828c.539-.721 1.688-1.478 2.91-1.478 2.299 0 4.06 1.442 4.06 3.892s-1.761 3.892-4.06 3.892v-.001zm-9.34-10.99c1.041 0 1.58.18 1.58.18v3.207s-2.874-.973-4.67 1.081v9.478h-3.45V19.26h2.91c.288 0 .504.253.504.505v.576c.646-.756 2.047-1.441 3.125-1.441h.001zM56.874 31.586c-.18-.433-.36-.901-.54-1.298-.287-.648-.574-1.261-.825-1.838l-.036-.036a376.618 376.618 0 00-7.94-16.288l-.108-.216c-.287-.54-.574-1.117-.862-1.694-.36-.648-.718-1.333-1.293-1.982C44.12 6.793 42.469 6 40.708 6c-1.796 0-3.413.793-4.598 2.162-.539.649-.934 1.333-1.293 1.982-.28.568-.568 1.133-.863 1.694l-.107.216c-2.767 5.406-5.461 10.883-7.94 16.288l-.036.072c-.251.577-.539 1.19-.826 1.838-.18.397-.36.83-.54 1.298-.466 1.333-.61 2.594-.43 3.891a7.654 7.654 0 004.67 5.982c.92.388 1.91.584 2.91.577a9.474 9.474 0 004.527-1.297c1.473-.83 2.874-2.018 4.454-3.748 1.581 1.73 3.018 2.919 4.455 3.748A9.474 9.474 0 0049.618 42c1.006 0 2.012-.18 2.91-.577 2.514-1.009 4.275-3.315 4.67-5.982.287-1.26.144-2.522-.323-3.855h-.001zm-16.203 1.873c-1.94-2.45-3.197-4.756-3.628-6.702-.18-.83-.216-1.55-.108-2.198.07-.543.268-1.061.575-1.514.683-.973 1.832-1.586 3.161-1.586 1.33 0 2.515.577 3.162 1.586.287.432.503.937.575 1.514.107.648.071 1.405-.108 2.198-.431 1.91-1.689 4.216-3.629 6.702zm14.335 1.694a5.352 5.352 0 01-3.27 4.216c-.862.36-1.796.469-2.73.36-.898-.107-1.796-.396-2.73-.936-1.294-.72-2.587-1.838-4.096-3.496 2.371-2.919 3.808-5.585 4.347-7.964a9.06 9.06 0 00.18-3.063 5.857 5.857 0 00-.97-2.45c-1.114-1.622-2.982-2.559-5.066-2.559-2.083 0-3.951.973-5.065 2.559a5.857 5.857 0 00-.97 2.45 7.504 7.504 0 00.18 3.063c.538 2.379 2.011 5.081 4.346 8-1.472 1.658-2.802 2.775-4.095 3.496-.934.54-1.832.829-2.73.937a5.73 5.73 0 01-2.73-.36 5.352 5.352 0 01-3.27-4.217 5.983 5.983 0 01.323-2.81c.108-.361.288-.721.467-1.154.252-.576.54-1.189.827-1.802l.036-.072a394.446 394.446 0 017.903-16.18l.108-.216c.287-.54.575-1.117.862-1.658.288-.576.611-1.117 1.006-1.585.755-.865 1.76-1.334 2.874-1.334s2.12.469 2.874 1.334c.395.468.719 1.009 1.006 1.585.288.54.575 1.117.862 1.658l.108.216a478.647 478.647 0 017.868 16.216v.036c.287.577.539 1.226.826 1.802.18.433.36.793.467 1.153.287.937.395 1.838.252 2.775z" fill="#B5B9C1" fill-rule="nonzero"/></svg>